<?xml version="1.0" encoding="UTF-8"?>
<!DOCTYPE svg PUBLIC "-//W3C//DTD SVG 1.1//EN" "http://www.w3.org/Graphics/SVG/1.1/DTD/svg11.dtd">
<svg version="1.1" xmlns="http://www.w3.org/2000/svg" xmlns:xlink="http://www.w3.org/1999/xlink" x="0" y="0" width="434.881" height="515.234" viewBox="0, 0, 434.881, 515.234">
  <g id="レイヤー_1">
    <path d="M141.838,408.135 L120.63,453.693 C120.63,453.693 139.481,476.472 216.459,476.472 C293.436,476.472 318.571,455.264 318.571,455.264 L291.865,405.779" fill="#E52329"/>
    <path d="M216.459,482.097 C183.821,482.097 157.289,478.131 137.601,470.31 C122.368,464.258 116.873,457.977 116.297,457.28 L114.031,454.542 L136.739,405.762 L146.937,410.51 L127.503,452.257 C134.659,457.563 158.38,470.848 216.459,470.848 C273.99,470.848 301.765,458.696 311.161,453.378 L286.915,408.45 L296.815,403.107 L325.69,456.616 L322.197,459.564 C321.107,460.484 294.593,482.097 216.459,482.097" fill="#482D21"/>
    <path d="M294.082,463.599 C274.569,460.365 268.45,446.836 268.191,446.242 L279.437,441.332 L273.814,443.787 L279.397,441.245 C279.567,441.604 283.741,450.035 297.699,451.724 C315.552,453.874 324.908,436.374 325.297,435.628 L336.208,441.242 C335.667,442.299 322.654,467.087 296.232,463.906 C295.499,463.818 294.78,463.715 294.082,463.599" fill="#FBCE5B"/>
    <path d="M294.627,460.297 C295.277,460.404 295.942,460.502 296.625,460.583 C315.882,462.914 327.397,448.86 331.516,442.592 L326.521,440.021 C322.765,445.547 312.998,456.927 297.299,455.047 C286.486,453.739 280.83,448.769 278.222,445.515 L272.985,447.801 C275.734,451.663 282.115,458.224 294.627,460.297 M300.891,467.536 C299.258,467.536 297.572,467.437 295.833,467.229 C295.055,467.136 294.285,467.025 293.537,466.902 L293.535,466.9 C272.261,463.375 265.407,448.227 265.125,447.584 L263.784,444.515 L272.452,440.731 L281.007,436.837 L282.42,439.81 C282.559,440.09 286.07,446.946 298.101,448.403 C313.722,450.294 321.984,434.747 322.329,434.084 L323.867,431.129 L340.708,439.793 L339.188,442.766 C338.639,443.839 326.202,467.536 300.891,467.536" fill="#482D21"/>
    <path d="M317.933,432.757 C317.933,432.757 314.861,417.47 327.914,412.5 L330.402,422.085 L341.221,415.215 L343.298,427.279 L354.781,422.559 C354.781,422.559 353.724,441.236 339.43,444.471 C325.136,447.707 318.599,437.962 317.933,432.757" fill="#482D21"/>
    <path d="M256.582,488.944 C256.582,488.944 250.712,476.921 262.453,465.757 C274.194,454.593 275.172,441.711 275.172,441.711 L217.445,426.057 L159.719,441.711 C159.719,441.711 160.698,454.593 172.439,465.757 C184.18,476.921 178.309,488.944 178.309,488.944 C178.309,488.944 160.698,494.955 163.633,503.543 C163.633,503.543 167.546,511.272 183.201,508.696 C198.856,506.12 207.661,501.826 203.748,494.097 C203.748,494.097 204.726,470.91 217.445,470.91 C230.165,470.91 231.143,494.097 231.143,494.097 C227.23,501.826 236.035,506.12 251.69,508.696 C267.345,511.272 271.258,503.543 271.258,503.543 C274.194,494.955 256.582,488.944 256.582,488.944" fill="#FBCE5B"/>
    <path d="M169.497,501.186 C170.832,502.235 174.403,504.057 182.226,502.771 C195.355,500.609 198.147,498.021 198.637,497.414 C198.603,497.293 198.533,497.096 198.39,496.811 L197.681,495.412 L197.747,493.845 C198.2,483.095 202.86,464.904 217.445,464.904 C232.032,464.904 236.691,483.095 237.144,493.845 L237.21,495.412 L236.501,496.811 C236.358,497.096 236.288,497.293 236.254,497.414 C236.744,498.021 239.536,500.609 252.667,502.771 C260.638,504.083 264.259,502.139 265.44,501.244 C264.55,499.584 259.777,496.401 254.632,494.625 L252.284,493.815 L251.184,491.58 C250.865,490.927 243.553,475.44 258.313,461.405 C264.045,455.955 266.788,450.019 268.079,446.011 L217.445,432.281 L166.788,446.018 C168.064,450.005 170.795,455.906 176.578,461.405 C191.339,475.44 184.025,490.927 183.706,491.58 L182.611,493.822 L180.249,494.628 C175.206,496.369 170.516,499.468 169.497,501.186 M257.75,515.233 C255.63,515.233 253.293,515.048 250.716,514.624 C236.207,512.234 228.416,508.565 225.453,502.723 C224.359,500.567 223.492,497.226 225.055,493.045 C224.51,486.786 221.991,476.916 217.445,476.916 C212.926,476.916 210.37,486.905 209.835,493.041 C211.399,497.225 210.532,500.565 209.438,502.723 C206.475,508.565 198.684,512.234 184.176,514.624 C164.747,517.823 158.879,507.452 158.274,506.257 L157.95,505.487 C156.695,501.814 156.154,494.654 166.639,487.961 C169.091,486.396 171.64,485.182 173.515,484.38 C174.141,481.472 174.278,475.794 168.3,470.111 C155.036,457.497 153.778,442.787 153.731,442.166 L153.354,437.214 L217.445,419.835 L281.536,437.214 L281.16,442.166 C281.113,442.787 279.855,457.497 266.591,470.111 C260.613,475.793 260.763,481.498 261.378,484.38 C263.252,485.182 265.801,486.396 268.252,487.961 C278.737,494.654 278.196,501.814 276.941,505.487 L276.616,506.257 C276.093,507.291 271.612,515.232 257.75,515.233" fill="#482D21"/>
    <path d="M271.895,443.988 C277.394,442.59 280.631,436.844 279.981,431.197 C276.025,396.8 264.133,356.853 264.133,356.853 L218.113,337.775 L218.113,336.734 L216.858,337.254 L215.603,336.734 L215.603,337.775 L169.582,356.853 C169.582,356.853 157.691,396.8 153.734,431.197 C153.085,436.844 156.343,442.507 161.821,443.988 C175.31,447.635 230.923,454.404 271.895,443.988" fill="#009AD9"/>
    <path d="M175.028,361.717 C172.249,371.551 163.499,403.874 160.27,431.949 C159.969,434.563 161.404,437.062 163.537,437.639 C177.772,441.486 232.147,447.306 270.275,437.614 L270.275,437.613 C272.323,437.092 273.746,434.552 273.447,431.949 C270.216,403.848 261.469,371.547 258.69,361.717 L216.858,344.376 z M219.719,456.08 C193.276,456.08 169.422,452.857 160.105,450.338 C151.705,448.068 146.157,439.516 147.2,430.446 C151.177,395.874 162.786,356.631 163.279,354.978 L164.172,351.977 L209.026,333.382 L209.026,326.887 L216.858,330.135 L224.691,326.887 L224.691,333.382 L269.546,351.977 L270.438,354.978 C270.931,356.631 282.539,395.874 286.516,430.446 C287.574,439.648 281.985,448.211 273.515,450.364 C256.903,454.586 237.709,456.08 219.719,456.08" fill="#482D21"/>
    <path d="M236.633,399.596 L201.062,402.013 L201.062,413.41 L215.671,411.964 C215.982,415.709 215.85,421.509 212.459,423.77 C207.278,427.224 201.753,423.08 201.753,423.08 L196.573,432.059 C196.573,432.059 207.969,440.002 219.02,434.131 C227.434,429.661 225.039,416.993 223.416,411.197 L235.942,409.956 z" fill="#FEFEFE"/>
    <path d="M157.547,360.22 C157.547,360.22 123.771,386.926 119.844,401.85 C115.917,416.775 129.27,433.27 136.339,437.197 C143.408,441.125 162.26,433.27 157.547,420.702 C152.834,408.134 146.55,401.85 146.55,401.85 L177.97,372.002" fill="#FBCE5B"/>
    <path d="M140.925,444.216 C138.225,444.216 135.638,443.678 133.424,442.449 C124.145,437.294 109.31,418.284 114.036,400.322 C118.35,383.932 150.205,358.37 153.823,355.509 L161.274,364.931 C148.821,374.783 128.139,393.933 125.653,403.38 C122.651,414.786 133.628,428.82 139.257,431.947 C140.68,432.739 146.293,431.922 149.938,428.781 C153.131,426.029 152.286,423.774 151.924,422.812 C147.792,411.794 142.334,406.129 142.28,406.073 L138.024,401.716 L142.415,397.497 L173.834,367.649 L182.107,376.357 L154.691,402.402 C157.181,405.905 160.441,411.313 163.172,418.593 C165.77,425.522 163.754,432.732 157.779,437.88 C153.538,441.536 146.951,444.216 140.925,444.216" fill="#482D21"/>
    <path d="M277.017,360.22 C277.017,360.22 310.793,386.926 314.72,401.85 C318.647,416.775 305.294,433.27 298.225,437.197 C291.156,441.125 272.304,433.27 277.017,420.702 C281.73,408.134 288.014,401.85 288.014,401.85 L256.595,372.002" fill="#FBCE5B"/>
    <path d="M293.64,444.216 C287.613,444.216 281.028,441.536 276.786,437.88 C270.812,432.732 268.794,425.522 271.393,418.593 C274.124,411.313 277.385,405.905 279.874,402.402 L252.458,376.357 L260.733,367.649 L296.618,401.74 L292.261,406.097 C292.231,406.129 286.773,411.794 282.64,422.812 C282.28,423.774 281.434,426.029 284.627,428.781 C288.275,431.924 293.889,432.738 295.308,431.947 C300.937,428.82 311.914,414.786 308.912,403.379 C306.423,393.919 285.742,374.777 273.292,364.932 L280.742,355.509 C284.36,358.37 316.216,383.933 320.529,400.322 C325.255,418.284 310.42,437.295 301.141,442.449 C298.928,443.678 296.34,444.216 293.64,444.216" fill="#482D21"/>
    <path d="M255.603,366.374 C255.603,366.374 278.73,388.786 307.459,378.115 C336.695,367.256 335.378,344.791 335.378,344.791 C344.151,349.609 385.092,356.354 401.664,327.445 C418.539,298.006 400.689,280.226 400.689,280.226 C400.689,280.226 428.958,268.663 427.984,234.935 C427.009,201.207 404.588,194.462 404.588,194.462 C404.588,194.462 424.084,179.044 414.336,146.28 C404.588,113.516 373.395,114.479 373.395,114.479 C373.395,114.479 390.941,76.897 358.773,55.697 C331.089,37.452 303.209,54.733 303.209,54.733 C303.209,54.733 305.88,21.731 273.965,10.406 C240.875,-1.337 221.823,19.036 217.439,24.516 C213.056,19.036 194.004,-1.337 160.913,10.406 C128.999,21.731 131.669,54.733 131.669,54.733 C131.669,54.733 103.79,37.452 76.106,55.697 C43.938,76.897 61.484,114.479 61.484,114.479 C61.484,114.479 30.29,113.516 20.542,146.28 C10.794,179.044 30.29,194.462 30.29,194.462 C30.29,194.462 7.87,201.207 6.895,234.935 C5.92,268.663 34.19,280.226 34.19,280.226 C34.19,280.226 16.339,298.006 33.215,327.445 C49.786,356.354 90.728,349.609 99.501,344.791 C99.501,344.791 101.014,368.331 125.474,380.072 C159.885,396.589 176.352,368.331 176.352,368.331 C176.352,368.331 188.758,389.856 215.488,389.856 C244.724,389.856 255.603,366.374 255.603,366.374" fill="#EB7484"/>
    <path d="M176.384,354.629 L182.305,364.9 C182.724,365.609 193.244,382.985 215.488,382.985 C240.051,382.985 249.279,363.681 249.37,363.486 L253.437,354.706 L260.377,361.432 C261.31,362.321 280.952,380.63 305.067,371.674 C328.832,362.848 328.538,345.831 328.514,345.111 L327.785,332.703 L338.685,338.769 C344.167,341.778 381.16,349.397 395.703,324.029 C409.579,299.822 396.359,285.637 395.791,285.044 L388.453,277.737 L398.088,273.867 C399.03,273.469 421.935,263.483 421.116,235.134 C420.308,207.185 403.254,201.256 402.529,201.017 L389.911,197.221 L400.326,189.073 C400.917,188.585 415.947,175.791 407.751,148.239 C404.318,136.702 397.509,128.685 387.51,124.411 C380.101,121.244 373.685,121.345 373.607,121.347 L362.444,121.692 L367.169,111.573 C367.767,110.271 381.713,79.045 354.991,61.434 C331.252,45.789 307.07,60.425 306.828,60.574 L295.262,67.743 L296.36,54.18 C296.439,53.072 298.057,26.246 271.668,16.881 C243.254,6.8 227.084,23.461 222.805,28.808 L217.439,35.515 L212.074,28.808 C207.797,23.461 191.633,6.8 163.212,16.881 C136.822,26.246 138.439,53.072 138.52,54.21 L139.484,67.632 L128.049,60.574 C127.077,59.983 103.43,45.92 79.887,61.434 C53.165,79.045 67.111,110.271 67.718,111.592 L72.349,121.67 L61.271,121.347 C60.249,121.339 35.189,121.145 27.128,148.239 C18.931,175.791 33.962,188.585 34.606,189.116 L44.94,197.289 L32.27,201.042 C31.625,201.256 14.571,207.185 13.764,235.134 C12.944,263.483 35.849,273.469 36.824,273.88 L46.256,277.857 L39.038,285.095 C38.519,285.637 25.3,299.822 39.176,324.029 C53.72,349.401 90.714,341.779 96.193,338.769 L105.664,333.567 L106.358,344.35 C106.417,345.111 108.115,364.118 128.447,373.878 C156.818,387.492 169.873,365.802 170.415,364.872 z M215.488,396.727 C195.804,396.727 182.934,386.656 176.159,379.298 C167.483,387.912 149.6,399.272 122.501,386.266 C104.29,377.525 97.154,363.081 94.38,353.859 C76.699,358.275 42.847,358.066 27.254,330.863 C14.325,308.308 19.285,291.431 24.217,282.5 C14.634,276.099 -0.749,261.596 0.028,234.737 C0.595,215.108 7.953,203.526 14.027,197.266 C15.894,195.343 17.759,193.784 19.498,192.531 C13.603,184.042 6.878,168.115 13.957,144.32 C20.981,120.711 38.781,111.264 52.178,108.519 C51.067,104.392 50.041,99.1 49.864,93.247 C49.309,74.978 57.077,60.009 72.325,49.96 C93.027,36.317 113.591,40.067 125.348,44.299 C127.583,30.254 136.114,11.915 158.616,3.931 C184.031,-5.088 204.704,2.682 217.439,14.467 C230.175,2.681 250.848,-5.09 276.262,3.931 C298.765,11.915 307.295,30.255 309.531,44.3 C321.286,40.067 341.849,36.315 362.554,49.96 C377.801,60.009 385.569,74.978 385.015,93.247 C384.837,99.1 383.812,104.392 382.701,108.519 C396.098,111.263 413.897,120.71 420.922,144.32 C428.002,168.115 421.275,184.042 415.381,192.531 C417.12,193.784 418.986,195.343 420.852,197.266 C426.925,203.526 434.285,215.108 434.852,234.737 C435.628,261.596 420.245,276.099 410.662,282.5 C415.594,291.431 420.554,308.308 407.625,330.863 C392.171,357.822 358.777,358.269 340.969,353.975 C340.426,355.926 339.661,358.078 338.583,360.338 C335.004,367.848 327.112,378.145 309.851,384.556 C286.678,393.164 267.007,383.221 257.293,376.474 C251.065,384.622 238.022,396.727 215.488,396.727" fill="#482D21"/>
    <path d="M369.913,232.403 C369.913,322.755 303.368,348.557 216.858,348.557 C130.349,348.557 63.804,322.755 63.804,232.403 C63.804,142.05 130.349,68.805 216.858,68.805 C303.368,68.805 369.913,142.05 369.913,232.403" fill="#FBCE5B"/>
    <path d="M216.858,75.216 C177.043,75.216 140.013,91.505 112.59,121.081 C85.263,150.553 70.213,190.088 70.213,232.403 C70.213,307.274 116.811,342.146 216.858,342.146 C316.905,342.146 363.502,307.274 363.502,232.403 C363.502,190.088 348.452,150.554 321.126,121.081 C293.703,91.505 256.672,75.216 216.858,75.216 M216.858,354.967 C167.446,354.967 130.664,346.717 104.409,329.746 C73.211,309.579 57.392,276.828 57.392,232.403 C57.392,186.845 73.656,144.214 103.188,112.363 C133.065,80.141 173.434,62.395 216.858,62.395 C260.282,62.395 300.651,80.141 330.527,112.363 C360.059,144.214 376.324,186.845 376.324,232.403 C376.324,276.828 360.504,309.578 329.307,329.746 C303.052,346.717 266.27,354.967 216.858,354.967" fill="#482D21"/>
    <path d="M106.832,90.02 C106.832,90.02 88.184,50.041 51.237,65.27 C14.29,80.498 27.427,130.854 61.997,138.795 C61.997,138.795 76.263,104.111 106.832,90.02" fill="#FBCE5B"/>
    <path d="M67.362,68.984 C63.263,68.984 58.788,69.825 53.938,71.824 C41.651,76.888 35.209,87.097 36.263,99.832 C37.222,111.413 44.985,124.682 58.246,130.181 C63.459,120.101 76.014,99.588 96.981,87.195 C92.14,80.061 82.227,68.984 67.362,68.984 M66.267,147.051 L60.409,145.705 C39.656,140.938 23.916,122.555 22.132,101.002 C20.558,81.986 30.428,66.178 48.534,58.715 C82.709,44.627 105.816,71.072 113.256,87.024 L116.267,93.478 L109.799,96.459 C82.081,109.236 68.686,141.171 68.553,141.492 z" fill="#482D21"/>
    <path d="M91.547,95.439 C91.547,95.439 85.433,82.432 70.149,83.516 C54.864,84.6 51.807,100.858 51.807,100.858 C51.807,100.858 71.168,84.6 84.414,103.026 z" fill="#482D21"/>
    <path d="M325.612,90.02 C325.612,90.02 344.26,50.041 381.207,65.27 C418.154,80.498 405.017,130.854 370.447,138.795 C370.447,138.795 356.181,104.111 325.612,90.02" fill="#FBCE5B"/>
    <path d="M335.498,87.215 C356.445,99.611 368.987,120.105 374.197,130.18 C387.457,124.682 395.221,111.413 396.18,99.832 C397.234,87.096 390.791,76.888 378.504,71.824 C365.826,66.598 354.707,68.296 344.517,77.016 C340.61,80.359 337.589,84.157 335.498,87.215 M366.176,147.05 L363.89,141.492 C363.761,141.179 350.225,109.172 322.644,96.458 L316.175,93.477 L319.187,87.023 C326.628,71.07 349.729,44.627 383.909,58.714 C402.015,66.177 411.885,81.986 410.31,101.001 C408.527,122.555 392.786,140.938 372.034,145.704 z" fill="#482D21"/>
    <path d="M340.897,95.439 C340.897,95.439 347.011,82.432 362.295,83.516 C377.58,84.6 380.637,100.858 380.637,100.858 C380.637,100.858 361.276,84.6 348.03,103.026 z" fill="#482D21"/>
    <path d="M185.375,228.87 L248.34,228.87 C248.34,228.87 243.843,248.834 216.857,248.834 C189.873,248.834 185.375,228.87 185.375,228.87" fill="#482D21"/>
    <path d="M185.375,228.87 C185.375,228.87 194.702,174.487 215.008,174.487 C238.216,174.487 248.34,228.87 248.34,228.87 z" fill="#FCE19F"/>
    <path d="M130.823,241.822 C130.823,254.995 120.599,265.674 107.986,265.674 C95.373,265.674 85.149,254.995 85.149,241.822 C85.149,228.649 95.373,217.97 107.986,217.97 C120.599,217.97 130.823,228.649 130.823,241.822" fill="#F5AC56"/>
    <path d="M351.827,241.822 C351.827,254.995 341.603,265.674 328.99,265.674 C316.377,265.674 306.153,254.995 306.153,241.822 C306.153,228.649 316.377,217.97 328.99,217.97 C341.603,217.97 351.827,228.649 351.827,241.822" fill="#F5AC56"/>
    <path d="M153.872,194.591 C153.872,204.153 146.286,211.905 136.928,211.905 C127.571,211.905 119.985,204.153 119.985,194.591 C119.985,185.029 127.571,177.277 136.928,177.277 C146.286,177.277 153.872,185.029 153.872,194.591" fill="#482D21"/>
    <path d="M313.732,194.591 C313.732,204.153 306.146,211.905 296.788,211.905 C287.43,211.905 279.844,204.153 279.844,194.591 C279.844,185.029 287.43,177.277 296.788,177.277 C306.146,177.277 313.732,185.029 313.732,194.591" fill="#482D21"/>
    <path d="M233.065,273.605 C230.982,273.605 228.91,273.307 226.889,272.704 C222.529,271.403 218.682,268.723 216.253,265.406 C213.862,268.395 210,270.864 205.525,272.161 C198.787,274.112 191.806,273.162 186.373,269.55 C178.238,264.145 178.48,254.155 179.745,249.628 C180.015,248.656 181.02,248.085 181.996,248.36 C182.968,248.631 183.536,249.639 183.264,250.611 C183.147,251.038 180.46,261.233 188.396,266.507 C192.932,269.522 198.804,270.303 204.508,268.651 C209.231,267.283 213.205,264.336 214.631,261.143 C214.924,260.485 215.578,260.062 216.299,260.062 C217.02,260.062 217.673,260.485 217.967,261.143 C219.585,264.762 223.404,267.85 227.933,269.202 C231.692,270.325 237.57,270.765 244.227,266.491 C252.219,261.363 249.456,251.05 249.335,250.614 C249.065,249.643 249.63,248.635 250.601,248.363 C251.569,248.09 252.577,248.653 252.852,249.622 C254.152,254.21 254.435,264.283 246.202,269.567 C242.04,272.237 237.528,273.605 233.065,273.605" fill="#482D21"/>
  </g>
</svg>
